<svg id="Layer_1" data-name="Layer 1" xmlns="http://www.w3.org/2000/svg" viewBox="0 0 287.4 35.94"><defs><style>.cls-1{fill:#231f20;}</style></defs><path class="cls-1" d="M110.87,15.68v-7a3.49,3.49,0,0,0-1.47-3,5.36,5.36,0,0,0-3-.89,5.1,5.1,0,0,0-4.77,2.82l1.62.81a3.17,3.17,0,0,1,3.15-2c1.69,0,2.57.74,2.57,2.29V9.1s0,.14-.07.14a1.18,1.18,0,0,1-.66.23,11.71,11.71,0,0,0-5.14,1.4,4.16,4.16,0,0,0-2,3.55,4,4,0,0,0,1.24,2.74,3.9,3.9,0,0,0,2.57,1A4.53,4.53,0,0,0,109,16.27a1.44,1.44,0,0,0,.81,1.41,3,3,0,0,0,1.76.15V16.5A.76.76,0,0,1,110.87,15.68ZM109,14.13c-.14,1.11-2.2,2.51-3.89,2.37a2,2,0,0,1-2-2c-.14-2.15,1.4-3,4.92-3.41a2.44,2.44,0,0,0,1-.22Zm-81.73,2a7.63,7.63,0,0,0,1.47-4.74A7.58,7.58,0,0,0,27.3,6.66a4.87,4.87,0,0,0-4-1.93,5,5,0,0,0-4.11,1.93,7.58,7.58,0,0,0-1.47,4.73,7.63,7.63,0,0,0,1.47,4.74,5,5,0,0,0,4.11,1.92A4.89,4.89,0,0,0,27.3,16.13Zm-7.49-4.74c0-3.18,1.25-5.1,3.45-5.1s3.37,1.92,3.37,5.1-1.24,5.11-3.37,5.11S19.81,14.57,19.81,11.39Zm23.77,6.66a4.06,4.06,0,0,0,3.16-1.7h.07v2.44a2.82,2.82,0,0,1-3,2.73,9.15,9.15,0,0,1-3.95-.81v1.78a11.22,11.22,0,0,0,3.73.59c3.53,0,5.22-1.92,5.22-4.81V5H47.33l-.44,1.33a3.8,3.8,0,0,0-3.23-1.63c-2.27,0-5.43,1.56-5.43,6.66S41.39,18.05,43.58,18.05ZM43.8,6.36a3.58,3.58,0,0,1,3,1.63v6.14a3.55,3.55,0,0,1-3,2.37c-2,0-3.51-1.33-3.51-5.18C40.29,8.06,41.6,6.36,43.8,6.36Zm85.63,9V0h-2.05V16.05a1.76,1.76,0,0,0,.88,1.55,3.64,3.64,0,0,0,2.05.45,9.39,9.39,0,0,0,1.32-.15V16.5h-.73C129.58,16.5,129.43,15.91,129.43,15.39ZM2.06,2,6.83,17.9H8.36L13.13,2V17.9h2V.45H11.81l-4.18,14-.07.08v-.08L3.38.45H0V17.9H2.06Zm0,0L6.83,17.9H8.36L13.13,2V17.9h2V.45H11.81l-4.18,14-.07.08v-.08L3.38.45H0V17.9H2.06ZM138.31,4.73a5.35,5.35,0,0,0-2.27.45,4.39,4.39,0,0,0-1.77,1.33,8,8,0,0,0-1.39,4.88,6.94,6.94,0,0,0,1.83,5.18,5.41,5.41,0,0,0,3.89,1.55,4.93,4.93,0,0,0,4.92-3l-1.61-.81a3.47,3.47,0,0,1-3.31,2.22,3.27,3.27,0,0,1-2.71-1.33,5.4,5.4,0,0,1-1-3.41h8.73V10.58a6.13,6.13,0,0,0-1.61-4.66A5.27,5.27,0,0,0,138.31,4.73ZM135,10.21c.14-2.66,1.17-3.85,3.3-3.85,2.35,0,3.38,1.19,3.38,3.85Zm-101.77.37c.44-2.67,1.83-3.92,4.18-3.92V4.81c-2,0-3.15.81-4.18,2.66h-.07l.07-.15V5H31.19V17.9h2.05ZM90,9.54a14.71,14.71,0,0,0-3.74-1.7c-2.2-.74-4.26-1.4-4.18-3.25a2.52,2.52,0,0,1,.8-2,3.57,3.57,0,0,1,2.35-.74,4.56,4.56,0,0,1,2.65.89A4.18,4.18,0,0,1,89.3,4.88l1.83-.22A5.73,5.73,0,0,0,85.26.15a6,6,0,0,0-3.81,1.33A4.32,4.32,0,0,0,80,4.73,3.94,3.94,0,0,0,81.67,8a12.18,12.18,0,0,0,3.66,1.7c2.2.81,4.33,1.55,4.33,3.63a2.92,2.92,0,0,1-.87,2.21,3.94,3.94,0,0,1-2.8.89c-2.12,0-3.67-1.25-4.54-3.55l-1.91.52a10.25,10.25,0,0,0,2.13,3.25,6.19,6.19,0,0,0,4.25,1.48,6,6,0,0,0,4.62-1.62,5.15,5.15,0,0,0,1.25-3.56A4.07,4.07,0,0,0,90,9.54Zm7-8.8H94.94V5H93V6.58h1.9v9.47a1.72,1.72,0,0,0,.81,1.55,3.84,3.84,0,0,0,2.06.45,7.88,7.88,0,0,0,1.32-.15V16.5h-.66c-1.32,0-1.47-.59-1.47-1.11V6.58h2.13V5H97Zm-26.71,4a5.14,5.14,0,0,0-3.74,2V5h-2V17.9h2V8.36c.66-.74,2.13-2,3.52-2s2.06.67,2.06,2.22V17.9h2V8.51A3.56,3.56,0,0,0,70.29,4.73ZM153.35,5l-2.93,9.91v.22l-.07-.22L147,5h-2l4.47,12.8v.07a6.25,6.25,0,0,1-1.76,3.25,3.28,3.28,0,0,1-1.76.44,4.45,4.45,0,0,1-.95-.14v1.55a5.14,5.14,0,0,0,1.32.22,4.31,4.31,0,0,0,2.42-.74,7.93,7.93,0,0,0,2.13-3.48l4.47-14Zm-33.24-.23a5.42,5.42,0,0,0-3.81,2l.07-1.7h-2.05V17.9h2.05V8.36c.66-.74,2.13-2,3.53-2s2,.67,2,2.22V17.9h2V8.51A3.56,3.56,0,0,0,120.11,4.73Zm-61,4.51c0,.08-.22.16-.66.23a11,11,0,0,0-5.06,1.4,4,4,0,0,0-2.06,3.55,3.92,3.92,0,0,0,1.17,2.74,3.92,3.92,0,0,0,2.57,1,4.53,4.53,0,0,0,4.18-1.85,1.52,1.52,0,0,0,.88,1.41,2.78,2.78,0,0,0,1.7.15V16.5a.76.76,0,0,1-.74-.82v-7a3.52,3.52,0,0,0-1.47-3,5.34,5.34,0,0,0-3-.89A5.1,5.1,0,0,0,51.8,7.55l1.62.81a3.18,3.18,0,0,1,3.15-2c1.69,0,2.57.74,2.57,2.29V9.1S59.14,9.24,59.07,9.24Zm.14,1.63v3.26c-.14,1.11-2.2,2.51-3.89,2.37a2,2,0,0,1-2-2c-.15-2.15,1.46-3,4.91-3.41A2.44,2.44,0,0,0,59.21,10.87ZM3.92,26.69,0,35.77H2.39L3,34.23H7.16l.62,1.53h2.46L6.31,26.69Zm-.15,5.68,1.32-3.22L6.4,32.37Zm51.55-2.82c0-1.79-1.23-2.85-3.33-2.85H46.72v9.06H49V32.54h1.83l2,3.22h2.55l-2.21-3.37A2.67,2.67,0,0,0,55.32,29.55Zm-3.45,1H49V28.72h2.84c.7,0,1.17.21,1.17.88S52.61,30.51,51.87,30.51Zm13.47-3.8H62.51L59.27,30.1V26.71H57v9h2.3V33l.78-.81,2.87,3.62h2.66l-4-5.17Zm-24.87-.16a4.53,4.53,0,0,0-4.84,4.69,4.54,4.54,0,0,0,4.84,4.7,4.54,4.54,0,0,0,4.84-4.7A4.53,4.53,0,0,0,40.47,26.55Zm0,7.34A2.36,2.36,0,0,1,38,31.24a2.45,2.45,0,1,1,4.88,0A2.36,2.36,0,0,1,40.47,33.89Zm-9.14-1.54-1.9-5.66H27.37l-1.89,5.65-1.74-5.59V26.7H21.26l3,9.06h2.09l2-5.77,2,5.77h2.2l2.94-9.06H33.09ZM9,28.68h3.36v7.08h2.27V28.68h3.35v-2H9Z"/><rect class="cls-1" x="170.48" y="0.03" width="0.42" height="35.71"/><path class="cls-1" d="M215,16.08c-.31,0-.47-.15-.47-.53V11.16c0-2-1.64-3.14-3.88-3.14a4.22,4.22,0,0,0-4,2.23l2.15,1a2.18,2.18,0,0,1,2.08-1c.68,0,1.23.4,1.24.83,0,.27-.12.44-.63.51-3.52.47-5.11,1.6-5.11,3.67,0,1.65,1.5,2.77,3.32,2.77a4.17,4.17,0,0,0,2.79-.86,1.77,1.77,0,0,0,1.66.8,4.82,4.82,0,0,0,1.15-.14V16.08Zm-2.92-.95a3.64,3.64,0,0,1-2.14.69c-.65,0-1.16-.23-1.17-.8,0-.76,1.1-1.21,2.73-1.57a2.91,2.91,0,0,0,.58-.17Z"/><path class="cls-1" d="M218.79,9.31V8.22h-2.47v9.66h2.47V12a2.73,2.73,0,0,1,2.74-1.61V8.1A3.12,3.12,0,0,0,218.79,9.31Z"/><path class="cls-1" d="M202.18,8a3.81,3.81,0,0,0-2.53,1.05V4.72h-2.47V17.88h2.47V11.59a2.94,2.94,0,0,1,2.23-1.25c.74,0,1.11.33,1.11,1v6.57h2.47v-7C205.46,8.91,204.05,8,202.18,8Z"/><path class="cls-1" d="M192.12,10.13c-2.49-.84-3-1.5-3-2.06s.74-1.21,1.95-1.21a2,2,0,0,1,2,1.33l2.4-.54c-.64-1.93-2.07-3.1-4.6-3.1s-4.44,1.59-4.47,3.69,1.87,3.24,4.34,4.11c2.29.82,2.71,1.17,2.71,2,0,.59-.64,1.36-2.24,1.36a3.18,3.18,0,0,1-2.87-2L186,14.3c.55,1.93,2.11,3.7,5.35,3.7s4.91-1.73,4.91-3.93C196.3,12.81,195.63,11.33,192.12,10.13Z"/><path class="cls-1" d="M248.77,8a4.65,4.65,0,0,0-4.8,5,4.8,4.8,0,1,0,9.59,0A4.65,4.65,0,0,0,248.77,8Zm-.06,7.77c-1,0-2.06-.7-2.06-2.8s1.08-2.8,2.06-2.8,2.06.7,2.06,2.8S249.69,15.79,248.71,15.79Z"/><path class="cls-1" d="M274.39,12.14c-2.09-.74-2.3-1-2.3-1.43s.32-.6,1.07-.6a2.24,2.24,0,0,1,1.65.85l1.85-1.35A4.49,4.49,0,0,0,273.11,8c-1.8,0-3.41,1-3.41,2.75,0,1.34,1,2.39,3.24,3.13,1.34.45,1.77.66,1.77,1.16s-.56.88-1.34.88a2.41,2.41,0,0,1-2-1.17l-2,.94A4.2,4.2,0,0,0,273.29,18c2.32,0,3.87-1.2,3.87-3.07C277.16,13.73,276.48,12.88,274.39,12.14Z"/><polygon class="cls-1" points="269.36 8.22 266.18 8.22 263.11 11.8 263.1 4.66 260.64 4.66 260.65 17.88 263.11 17.88 263.11 15.25 264.43 13.77 266.76 17.88 269.54 17.88 266.07 11.92 269.36 8.22"/><path class="cls-1" d="M256.9,9.31V8.22h-2.46v9.66h2.46V12a2.75,2.75,0,0,1,2.75-1.61V8.1A3.13,3.13,0,0,0,256.9,9.31Z"/><polygon class="cls-1" points="241.7 8.22 240.2 14.21 238.73 8.22 236.31 8.22 234.84 14.22 233.31 8.22 230.75 8.22 233.57 17.88 236.09 17.88 237.55 12.17 239 17.88 241.44 17.88 244.23 8.22 241.7 8.22"/><path class="cls-1" d="M231,12.88c0-2.69-1.54-4.86-4.5-4.86-3.12,0-4.72,2.07-4.72,4.89,0,3.28,1.88,5.09,4.73,5.09a4.38,4.38,0,0,0,4.18-2.43l-2.13-1a2.24,2.24,0,0,1-2.14,1.26c-.85,0-1.86-.47-2-2.11H231Zm-6.62-1.06a1.88,1.88,0,0,1,2-1.65,1.78,1.78,0,0,1,2,1.65Z"/></svg>